<?xml version="1.0" encoding="UTF-8" standalone="no"?>
<!DOCTYPE svg PUBLIC "-//W3C//DTD SVG 1.1//EN" "http://www.w3.org/Graphics/SVG/1.1/DTD/svg11.dtd">
<svg width="100%" height="100%" viewBox="0 0 3000 3000" version="1.1" xmlns="http://www.w3.org/2000/svg" xmlns:xlink="http://www.w3.org/1999/xlink" xml:space="preserve" xmlns:serif="http://www.serif.com/" style="fill-rule:evenodd;clip-rule:evenodd;stroke-linejoin:round;stroke-miterlimit:2;">
    <g transform="matrix(1.03148,0,0,1.39475,7.00309,-603.751)">
        <g transform="matrix(0.46892,0,0,1.3315,2082.96,882.711)">
            <g style="filter:url(#_Effect1);">
                <ellipse cx="724.823" cy="1046.33" rx="571.551" ry="19.116" style="fill:url(#_Radial2);"/>
            </g>
        </g>
        <g transform="matrix(2.42841,0,0,1.79592,-324.775,465.229)">
            <g style="filter:url(#_Effect3);">
                <path d="M1153.22,835.229C1184.98,845.81 1207.39,871.394 1207.39,901.243C1207.39,940.545 1168.53,972.453 1120.67,972.453C1082.52,972.453 1050.09,952.179 1038.5,924.045L712.204,464.767L1153.22,835.229ZM231.095,876.735L356.188,931.142L355.997,932.091C353.334,945.402 350.961,958.811 348.882,972.31L348.86,972.453L217.744,933.908L217.951,932.915C219.921,923.51 221.988,914.143 224.168,904.823C226.345,895.516 228.633,886.258 231.015,877.044L231.095,876.735ZM299.001,685.188L406.148,767.451L405.97,767.881C400.927,780.072 396.123,792.437 391.568,804.974L391.288,805.749L276.903,736.813C283.884,719.326 291.257,702.106 299.001,685.188ZM396.061,515.179L479.559,627.568C472.497,638.511 465.669,649.624 459.086,660.892L367.016,558.978C376.373,544.072 386.053,529.474 396.061,515.179ZM506.043,383.606L580.822,498.822C572.428,507.654 564.215,516.666 556.19,525.847L472.193,419.321C483.222,407.07 494.515,395.154 506.043,383.606ZM630.104,279.646L680.581,408.884C671.129,416.162 661.83,423.634 652.704,431.285L592.278,307.391C604.673,297.775 617.285,288.523 630.104,279.646ZM769.948,201.636L796.567,333.6C786.179,339.205 775.917,345.02 765.789,351.041L729.141,220.732C742.581,213.971 756.191,207.6 769.948,201.636ZM923.854,153.423L934.783,274.226C923.493,277.921 912.305,281.848 901.251,285.992L881.062,163.248L881.794,163.057C895.397,159.536 909.051,156.399 922.75,153.643L923.854,153.423ZM1061.57,139.249L1060.4,243.615L1059.72,243.726C1048.62,245.555 1037.54,247.603 1026.48,249.869L1025.73,250.026L1019.1,140.849C1033.15,139.915 1047.32,139.379 1061.57,139.249ZM1167.65,145.885C1180.99,147.687 1194.24,149.847 1207.39,152.36L1201.09,232.615C1199.63,232.607 1198.18,232.603 1196.72,232.603C1187.08,232.603 1177.48,232.766 1167.91,233.089L1167.65,145.885Z"/>
            </g>
        </g>
        <g transform="matrix(2.53297,-1.33083,0.948748,0.98761,-1207.6,2431.04)">
            <path d="M970.495,162.445L1088.99,1026.66L970.495,1026.66L970.495,162.445Z" style="fill:url(#_Linear4);"/>
        </g>
        <g transform="matrix(2.52009,0,0,1.53032,-435.469,723.509)">
            <circle cx="1123.83" cy="888.885" r="83.568" style="fill:url(#_Linear5);"/>
        </g>
        <path d="M236.42,2039.77L540.197,2137.48L539.732,2139.19C533.268,2163.09 527.504,2187.17 522.454,2211.42L522.402,2211.67L203.998,2142.45L204.5,2140.67C209.284,2123.78 214.305,2106.95 219.598,2090.22C224.884,2073.5 230.44,2056.88 236.226,2040.33L236.42,2039.77ZM401.323,1695.77L661.522,1843.51L661.088,1844.28C648.842,1866.17 637.176,1888.38 626.115,1910.9L625.435,1912.29L347.661,1788.48C364.612,1757.08 382.518,1726.15 401.323,1695.77ZM637.025,1390.45L839.792,1592.29C822.643,1611.94 806.062,1631.9 790.076,1652.14L566.492,1469.11C589.214,1442.34 612.723,1416.12 637.025,1390.45ZM904.107,1154.15L1085.7,1361.07C1065.32,1376.93 1045.37,1393.12 1025.88,1409.61L821.904,1218.3C848.688,1196.29 876.112,1174.89 904.107,1154.15ZM1205.38,967.45L1327.96,1199.55C1305.01,1212.62 1282.42,1226.04 1260.26,1239.78L1113.52,1017.28C1143.62,1000.01 1174.25,983.392 1205.38,967.45ZM1544.98,827.351L1609.62,1064.35C1584.39,1074.41 1559.47,1084.86 1534.88,1095.67L1445.88,861.646C1478.52,849.504 1511.57,838.061 1544.98,827.351ZM1918.73,740.764L1945.27,957.717C1917.85,964.353 1890.68,971.405 1863.84,978.847L1814.81,758.408L1816.59,758.066C1849.62,751.743 1882.78,746.109 1916.04,741.16L1918.73,740.764ZM2253.16,715.31L2250.32,902.742L2248.67,902.94C2221.71,906.227 2194.8,909.903 2167.95,913.974L2166.12,914.254L2150.01,718.183C2184.15,716.506 2218.55,715.542 2253.16,715.31ZM2510.77,727.226C2543.16,730.462 2575.33,734.343 2607.27,738.854L2591.97,882.986C2588.43,882.972 2584.89,882.966 2581.36,882.966C2557.95,882.966 2534.64,883.258 2511.39,883.838L2510.77,727.226Z" style="fill:url(#_Linear6);"/>
    </g>
    <defs>
        <filter id="_Effect1" filterUnits="userSpaceOnUse" x="-243.683" y="923.828" width="1937.01" height="245.006">
            <feGaussianBlur in="SourceGraphic" stdDeviation="23.5817"/>
        </filter>
        <radialGradient id="_Radial2" cx="0" cy="0" r="1" gradientUnits="userSpaceOnUse" gradientTransform="matrix(571.551,0,0,19.1165,724.823,1046.33)"><stop offset="0" style="stop-color:#000;stop-opacity:1"/><stop offset="1" style="stop-color:#000;stop-opacity:0"/></radialGradient>
        <filter id="_Effect3" filterUnits="userSpaceOnUse" x="198.581" y="120.087" width="1027.97" height="871.529">
            <feGaussianBlur in="SourceGraphic" stdDeviation="3.19378"/>
        </filter>
        <linearGradient id="_Linear4" x1="0" y1="0" x2="1" y2="0" gradientUnits="userSpaceOnUse" gradientTransform="matrix(1.45046,-963.711,1953.72,10.5788,969.705,1025.59)"><stop offset="0" style="stop-color:#efb303;stop-opacity:1"/><stop offset="1" style="stop-color:#ffcb0c;stop-opacity:1"/></linearGradient>
        <linearGradient id="_Linear5" x1="0" y1="0" x2="1" y2="0" gradientUnits="userSpaceOnUse" gradientTransform="matrix(63.4639,-150.854,101.709,63.4639,1111.21,972.453)"><stop offset="0" style="stop-color:#007ac9;stop-opacity:1"/><stop offset="1" style="stop-color:#36b3fa;stop-opacity:1"/></linearGradient>
        <linearGradient id="_Linear6" x1="0" y1="0" x2="1" y2="0" gradientUnits="userSpaceOnUse" gradientTransform="matrix(2487.9,-970.842,1105.24,1549.06,119.373,1686.15)"><stop offset="0" style="stop-color:#007ac9;stop-opacity:1"/><stop offset="1" style="stop-color:#36b3fa;stop-opacity:1"/></linearGradient>
    </defs>
</svg>
